<?xml version="1.0" encoding="UTF-8" standalone="no"?>
<!-- Created with Inkscape (http://www.inkscape.org/) -->

<svg
   version="1.1"
   id="svg2"
   width="1105.28"
   height="341.70667"
   viewBox="0 0 1105.28 341.70667"
   sodipodi:docname="embl-ebi-cmyk-all-white.eps"
   xmlns:inkscape="http://www.inkscape.org/namespaces/inkscape"
   xmlns:sodipodi="http://sodipodi.sourceforge.net/DTD/sodipodi-0.dtd"
   xmlns="http://www.w3.org/2000/svg"
   xmlns:svg="http://www.w3.org/2000/svg">
  <defs
     id="defs6" />
  <sodipodi:namedview
     id="namedview4"
     pagecolor="#ffffff"
     bordercolor="#000000"
     borderopacity="0.25"
     inkscape:showpageshadow="2"
     inkscape:pageopacity="0.0"
     inkscape:pagecheckerboard="0"
     inkscape:deskcolor="#d1d1d1" />
  <g
     id="g8"
     inkscape:groupmode="layer"
     inkscape:label="ink_ext_XXXXXX"
     transform="matrix(1.3333333,0,0,-1.3333333,0,341.70667)">
    <g
       id="g10"
       transform="scale(0.1)">
      <path
         d="m 7028.67,2453.63 c 0,60.3 48.88,109.18 109.19,109.18 60.31,0 109.18,-48.88 109.18,-109.18 0,-60.31 -48.87,-109.2 -109.18,-109.2 -60.31,0 -109.19,48.89 -109.19,109.2 v 0"
         style="fill:#ffffff;fill-opacity:1;fill-rule:nonzero;stroke:none"
         id="path12" />
      <path
         d="m 7028.67,2453.63 c 0,60.3 48.88,109.18 109.19,109.18 60.31,0 109.18,-48.88 109.18,-109.18 0,-60.31 -48.87,-109.2 -109.18,-109.2 -60.31,0 -109.19,48.89 -109.19,109.2 v 0"
         style="fill:#ffffff;fill-opacity:1;fill-rule:nonzero;stroke:none"
         id="path14" />
      <path
         d="m 7028.67,109.191 c 0,60.309 48.88,109.2 109.19,109.2 60.31,0 109.18,-48.891 109.18,-109.2 C 7247.04,48.8789 7198.17,0 7137.86,0 7077.55,0 7028.67,48.8789 7028.67,109.191 v 0"
         style="fill:#ffffff;fill-opacity:1;fill-rule:nonzero;stroke:none"
         id="path16" />
      <path
         d="m 7028.67,109.191 c 0,60.309 48.88,109.2 109.19,109.2 60.31,0 109.18,-48.891 109.18,-109.2 C 7247.04,48.8789 7198.17,0 7137.86,0 7077.55,0 7028.67,48.8789 7028.67,109.191 v 0"
         style="fill:#ffffff;fill-opacity:1;fill-rule:nonzero;stroke:none"
         id="path18" />
      <path
         d="m 7289.3,2307.09 c 0,60.3 48.89,109.19 109.18,109.19 60.31,0 109.19,-48.89 109.19,-109.19 0,-60.29 -48.88,-109.19 -109.19,-109.19 -60.29,0 -109.18,48.9 -109.18,109.19 v 0"
         style="fill:#ffffff;fill-opacity:1;fill-rule:nonzero;stroke:none"
         id="path20" />
      <path
         d="m 6768.01,2307.09 c 0,60.3 48.91,109.19 109.21,109.19 60.31,0 109.2,-48.89 109.2,-109.19 0,-60.29 -48.89,-109.19 -109.2,-109.19 -60.3,0 -109.21,48.9 -109.21,109.19 v 0"
         style="fill:#ffffff;fill-opacity:1;fill-rule:nonzero;stroke:none"
         id="path22" />
      <path
         d="m 7289.3,255.719 c 0,60.312 48.89,109.211 109.18,109.211 60.31,0 109.19,-48.899 109.19,-109.211 0,-60.297 -48.88,-109.18 -109.19,-109.18 -60.29,0 -109.18,48.883 -109.18,109.18 v 0"
         style="fill:#ffffff;fill-opacity:1;fill-rule:nonzero;stroke:none"
         id="path24" />
      <path
         d="m 6768.01,255.719 c 0,60.312 48.91,109.211 109.21,109.211 60.31,0 109.2,-48.899 109.2,-109.211 0,-60.297 -48.89,-109.18 -109.2,-109.18 -60.3,0 -109.21,48.883 -109.21,109.18 v 0"
         style="fill:#ffffff;fill-opacity:1;fill-rule:nonzero;stroke:none"
         id="path26" />
      <path
         d="m 7028.67,2160.57 c 0,60.3 48.88,109.18 109.19,109.18 60.31,0 109.18,-48.88 109.18,-109.18 0,-60.3 -48.87,-109.19 -109.18,-109.19 -60.31,0 -109.19,48.89 -109.19,109.19 v 0"
         style="fill:#ffffff;fill-opacity:1;fill-rule:nonzero;stroke:none"
         id="path28" />
      <path
         d="m 7549.96,2160.57 c 0,60.3 48.88,109.18 109.19,109.18 60.3,0 109.18,-48.88 109.18,-109.18 0,-60.3 -48.88,-109.19 -109.18,-109.19 -60.31,0 -109.19,48.89 -109.19,109.19 v 0"
         style="fill:#ffffff;fill-opacity:1;fill-rule:nonzero;stroke:none"
         id="path30" />
      <path
         d="m 6507.39,2160.57 c 0,60.3 48.89,109.18 109.2,109.18 60.29,0 109.19,-48.88 109.19,-109.18 0,-60.3 -48.9,-109.19 -109.19,-109.19 -60.31,0 -109.2,48.89 -109.2,109.19 v 0"
         style="fill:#ffffff;fill-opacity:1;fill-rule:nonzero;stroke:none"
         id="path32" />
      <path
         d="m 7028.67,402.25 c 0,60.309 48.88,109.199 109.19,109.199 60.31,0 109.18,-48.89 109.18,-109.199 0,-60.301 -48.87,-109.191 -109.18,-109.191 -60.31,0 -109.19,48.89 -109.19,109.191 v 0"
         style="fill:#ffffff;fill-opacity:1;fill-rule:nonzero;stroke:none"
         id="path34" />
      <path
         d="m 7549.96,402.25 c 0,60.309 48.88,109.199 109.19,109.199 60.3,0 109.18,-48.89 109.18,-109.199 0,-60.301 -48.88,-109.191 -109.18,-109.191 -60.31,0 -109.19,48.89 -109.19,109.191 v 0"
         style="fill:#ffffff;fill-opacity:1;fill-rule:nonzero;stroke:none"
         id="path36" />
      <path
         d="m 6507.39,402.25 c 0,60.309 48.89,109.199 109.2,109.199 60.29,0 109.19,-48.89 109.19,-109.199 0,-60.301 -48.9,-109.191 -109.19,-109.191 -60.31,0 -109.2,48.89 -109.2,109.191 v 0"
         style="fill:#ffffff;fill-opacity:1;fill-rule:nonzero;stroke:none"
         id="path38" />
      <path
         d="m 7289.3,2014.05 c 0,60.29 48.89,109.18 109.18,109.18 60.31,0 109.19,-48.89 109.19,-109.18 0,-60.32 -48.88,-109.2 -109.19,-109.2 -60.29,0 -109.18,48.88 -109.18,109.2 v 0"
         style="fill:#ffffff;fill-opacity:1;fill-rule:nonzero;stroke:none"
         id="path40" />
      <path
         d="m 7810.57,2014.05 c 0,60.29 48.89,109.18 109.2,109.18 60.31,0 109.19,-48.89 109.19,-109.18 0,-60.32 -48.88,-109.2 -109.19,-109.2 -60.31,0 -109.2,48.88 -109.2,109.2 v 0"
         style="fill:#ffffff;fill-opacity:1;fill-rule:nonzero;stroke:none"
         id="path42" />
      <path
         d="m 6768.01,2014.05 c 0,60.29 48.91,109.18 109.21,109.18 60.31,0 109.2,-48.89 109.2,-109.18 0,-60.32 -48.89,-109.2 -109.2,-109.2 -60.3,0 -109.21,48.88 -109.21,109.2 v 0"
         style="fill:#ffffff;fill-opacity:1;fill-rule:nonzero;stroke:none"
         id="path44" />
      <path
         d="m 6246.74,2014.05 c 0,60.29 48.9,109.18 109.21,109.18 60.29,0 109.18,-48.89 109.18,-109.18 0,-60.32 -48.89,-109.2 -109.18,-109.2 -60.31,0 -109.21,48.88 -109.21,109.2 v 0"
         style="fill:#ffffff;fill-opacity:1;fill-rule:nonzero;stroke:none"
         id="path46" />
      <path
         d="m 7289.3,1720.98 c 0,60.32 48.89,109.19 109.18,109.19 60.31,0 109.19,-48.87 109.19,-109.19 0,-60.28 -48.88,-109.18 -109.19,-109.18 -60.29,0 -109.18,48.9 -109.18,109.18 v 0"
         style="fill:#ffffff;fill-opacity:1;fill-rule:nonzero;stroke:none"
         id="path48" />
      <path
         d="m 7810.57,1720.98 c 0,60.32 48.89,109.19 109.2,109.19 60.31,0 109.19,-48.87 109.19,-109.19 0,-60.28 -48.88,-109.18 -109.19,-109.18 -60.31,0 -109.2,48.9 -109.2,109.18 v 0"
         style="fill:#ffffff;fill-opacity:1;fill-rule:nonzero;stroke:none"
         id="path50" />
      <path
         d="m 6768.01,1720.98 c 0,60.32 48.91,109.19 109.21,109.19 60.31,0 109.2,-48.87 109.2,-109.19 0,-60.28 -48.89,-109.18 -109.2,-109.18 -60.3,0 -109.21,48.9 -109.21,109.18 v 0"
         style="fill:#ffffff;fill-opacity:1;fill-rule:nonzero;stroke:none"
         id="path52" />
      <path
         d="m 6246.74,1720.98 c 0,60.32 48.9,109.19 109.21,109.19 60.29,0 109.18,-48.87 109.18,-109.19 0,-60.28 -48.89,-109.18 -109.18,-109.18 -60.31,0 -109.21,48.9 -109.21,109.18 v 0"
         style="fill:#ffffff;fill-opacity:1;fill-rule:nonzero;stroke:none"
         id="path54" />
      <path
         d="m 7289.3,1427.94 c 0,60.31 48.89,109.19 109.18,109.19 60.31,0 109.19,-48.88 109.19,-109.19 0,-60.31 -48.88,-109.2 -109.19,-109.2 -60.29,0 -109.18,48.89 -109.18,109.2 v 0"
         style="fill:#ffffff;fill-opacity:1;fill-rule:nonzero;stroke:none"
         id="path56" />
      <path
         d="m 7810.57,1427.94 c 0,60.31 48.89,109.19 109.2,109.19 60.31,0 109.19,-48.88 109.19,-109.19 0,-60.31 -48.88,-109.2 -109.19,-109.2 -60.31,0 -109.2,48.89 -109.2,109.2 v 0"
         style="fill:#ffffff;fill-opacity:1;fill-rule:nonzero;stroke:none"
         id="path58" />
      <path
         d="m 6768.01,1427.94 c 0,60.31 48.91,109.19 109.21,109.19 60.31,0 109.2,-48.88 109.2,-109.19 0,-60.31 -48.89,-109.2 -109.2,-109.2 -60.3,0 -109.21,48.89 -109.21,109.2 v 0"
         style="fill:#ffffff;fill-opacity:1;fill-rule:nonzero;stroke:none"
         id="path60" />
      <path
         d="m 6246.74,1427.94 c 0,60.31 48.9,109.19 109.21,109.19 60.29,0 109.18,-48.88 109.18,-109.19 0,-60.31 -48.89,-109.2 -109.18,-109.2 -60.31,0 -109.21,48.89 -109.21,109.2 v 0"
         style="fill:#ffffff;fill-opacity:1;fill-rule:nonzero;stroke:none"
         id="path62" />
      <path
         d="m 7289.3,1134.87 c 0,60.31 48.89,109.2 109.18,109.2 60.31,0 109.19,-48.89 109.19,-109.2 0,-60.3 -48.88,-109.19 -109.19,-109.19 -60.29,0 -109.18,48.89 -109.18,109.19 v 0"
         style="fill:#ffffff;fill-opacity:1;fill-rule:nonzero;stroke:none"
         id="path64" />
      <path
         d="m 7810.57,1134.87 c 0,60.31 48.89,109.2 109.2,109.2 60.31,0 109.19,-48.89 109.19,-109.2 0,-60.3 -48.88,-109.19 -109.19,-109.19 -60.31,0 -109.2,48.89 -109.2,109.19 v 0"
         style="fill:#ffffff;fill-opacity:1;fill-rule:nonzero;stroke:none"
         id="path66" />
      <path
         d="m 6768.01,1134.87 c 0,60.31 48.91,109.2 109.21,109.2 60.31,0 109.2,-48.89 109.2,-109.2 0,-60.3 -48.89,-109.19 -109.2,-109.19 -60.3,0 -109.21,48.89 -109.21,109.19 v 0"
         style="fill:#ffffff;fill-opacity:1;fill-rule:nonzero;stroke:none"
         id="path68" />
      <path
         d="m 6246.74,1134.87 c 0,60.31 48.9,109.2 109.21,109.2 60.29,0 109.18,-48.89 109.18,-109.2 0,-60.3 -48.89,-109.19 -109.18,-109.19 -60.31,0 -109.21,48.89 -109.21,109.19 v 0"
         style="fill:#ffffff;fill-opacity:1;fill-rule:nonzero;stroke:none"
         id="path70" />
      <path
         d="m 7289.3,841.828 c 0,60.301 48.89,109.184 109.18,109.184 60.31,0 109.19,-48.883 109.19,-109.184 0,-60.297 -48.88,-109.187 -109.19,-109.187 -60.29,0 -109.18,48.89 -109.18,109.187 v 0"
         style="fill:#ffffff;fill-opacity:1;fill-rule:nonzero;stroke:none"
         id="path72" />
      <path
         d="m 7810.57,841.828 c 0,60.301 48.89,109.184 109.2,109.184 60.31,0 109.19,-48.883 109.19,-109.184 0,-60.297 -48.88,-109.187 -109.19,-109.187 -60.31,0 -109.2,48.89 -109.2,109.187 v 0"
         style="fill:#ffffff;fill-opacity:1;fill-rule:nonzero;stroke:none"
         id="path74" />
      <path
         d="m 6768.01,841.828 c 0,60.301 48.91,109.184 109.21,109.184 60.31,0 109.2,-48.883 109.2,-109.184 0,-60.297 -48.89,-109.187 -109.2,-109.187 -60.3,0 -109.21,48.89 -109.21,109.187 v 0"
         style="fill:#ffffff;fill-opacity:1;fill-rule:nonzero;stroke:none"
         id="path76" />
      <path
         d="m 6246.74,841.828 c 0,60.301 48.9,109.184 109.21,109.184 60.29,0 109.18,-48.883 109.18,-109.184 0,-60.297 -48.89,-109.187 -109.18,-109.187 -60.31,0 -109.21,48.89 -109.21,109.187 v 0"
         style="fill:#ffffff;fill-opacity:1;fill-rule:nonzero;stroke:none"
         id="path78" />
      <path
         d="m 7289.3,548.781 c 0,60.301 48.89,109.188 109.18,109.188 60.31,0 109.19,-48.887 109.19,-109.188 0,-60.312 -48.88,-109.199 -109.19,-109.199 -60.29,0 -109.18,48.887 -109.18,109.199 v 0"
         style="fill:#ffffff;fill-opacity:1;fill-rule:nonzero;stroke:none"
         id="path80" />
      <path
         d="m 7810.57,548.781 c 0,60.301 48.89,109.188 109.2,109.188 60.31,0 109.19,-48.887 109.19,-109.188 0,-60.312 -48.88,-109.199 -109.19,-109.199 -60.31,0 -109.2,48.887 -109.2,109.199 v 0"
         style="fill:#ffffff;fill-opacity:1;fill-rule:nonzero;stroke:none"
         id="path82" />
      <path
         d="m 6768.01,548.781 c 0,60.301 48.91,109.188 109.21,109.188 60.31,0 109.2,-48.887 109.2,-109.188 0,-60.312 -48.89,-109.199 -109.2,-109.199 -60.3,0 -109.21,48.887 -109.21,109.199 v 0"
         style="fill:#ffffff;fill-opacity:1;fill-rule:nonzero;stroke:none"
         id="path84" />
      <path
         d="m 6246.74,548.781 c 0,60.301 48.9,109.188 109.21,109.188 60.29,0 109.18,-48.887 109.18,-109.188 0,-60.312 -48.89,-109.199 -109.18,-109.199 -60.31,0 -109.21,48.887 -109.21,109.199 v 0"
         style="fill:#ffffff;fill-opacity:1;fill-rule:nonzero;stroke:none"
         id="path86" />
      <path
         d="m 7028.67,1867.52 c 0,60.3 48.88,109.18 109.19,109.18 60.31,0 109.18,-48.88 109.18,-109.18 0,-60.31 -48.87,-109.18 -109.18,-109.18 -60.31,0 -109.19,48.87 -109.19,109.18 v 0"
         style="fill:#ffffff;fill-opacity:1;fill-rule:nonzero;stroke:none"
         id="path88" />
      <path
         d="m 7549.96,1867.52 c 0,60.3 48.88,109.18 109.19,109.18 60.3,0 109.18,-48.88 109.18,-109.18 0,-60.31 -48.88,-109.2 -109.18,-109.2 -60.31,0 -109.19,48.89 -109.19,109.2 v 0"
         style="fill:#ffffff;fill-opacity:1;fill-rule:nonzero;stroke:none"
         id="path90" />
      <path
         d="m 8071.21,1867.52 c 0,60.29 48.89,109.18 109.2,109.18 60.32,0 109.19,-48.89 109.19,-109.18 0,-60.32 -48.87,-109.2 -109.19,-109.2 -60.31,0 -109.2,48.88 -109.2,109.2 v 0"
         style="fill:#ffffff;fill-opacity:1;fill-rule:nonzero;stroke:none"
         id="path92" />
      <path
         d="m 6507.39,1867.52 c 0,60.3 48.89,109.18 109.2,109.18 60.29,0 109.19,-48.88 109.19,-109.18 0,-60.31 -48.9,-109.2 -109.19,-109.2 -60.31,0 -109.2,48.89 -109.2,109.2 v 0"
         style="fill:#ffffff;fill-opacity:1;fill-rule:nonzero;stroke:none"
         id="path94" />
      <path
         d="m 5986.12,1867.52 c 0,60.29 48.89,109.18 109.2,109.18 60.29,0 109.18,-48.89 109.18,-109.18 0,-60.32 -48.89,-109.2 -109.18,-109.2 -60.31,0 -109.2,48.88 -109.2,109.2 v 0"
         style="fill:#ffffff;fill-opacity:1;fill-rule:nonzero;stroke:none"
         id="path96" />
      <path
         d="m 7028.67,1574.46 c 0,60.31 48.88,109.19 109.19,109.19 60.31,0 109.18,-48.88 109.18,-109.19 0,-60.3 -48.87,-109.18 -109.18,-109.18 -60.31,0 -109.19,48.88 -109.19,109.18 v 0"
         style="fill:#ffffff;fill-opacity:1;fill-rule:nonzero;stroke:none"
         id="path98" />
      <path
         d="m 7549.96,1574.46 c 0,60.31 48.88,109.19 109.19,109.19 60.3,0 109.18,-48.88 109.18,-109.19 0,-60.3 -48.88,-109.18 -109.18,-109.18 -60.31,0 -109.19,48.88 -109.19,109.18 v 0"
         style="fill:#ffffff;fill-opacity:1;fill-rule:nonzero;stroke:none"
         id="path100" />
      <path
         d="m 8071.21,1574.46 c 0,60.3 48.89,109.19 109.2,109.19 60.32,0 109.19,-48.89 109.19,-109.19 0,-60.3 -48.87,-109.18 -109.19,-109.18 -60.31,0 -109.2,48.88 -109.2,109.18 v 0"
         style="fill:#ffffff;fill-opacity:1;fill-rule:nonzero;stroke:none"
         id="path102" />
      <path
         d="m 6507.39,1574.46 c 0,60.31 48.89,109.19 109.2,109.19 60.29,0 109.19,-48.88 109.19,-109.19 0,-60.3 -48.9,-109.18 -109.19,-109.18 -60.31,0 -109.2,48.88 -109.2,109.18 v 0"
         style="fill:#ffffff;fill-opacity:1;fill-rule:nonzero;stroke:none"
         id="path104" />
      <path
         d="m 5986.12,1574.46 c 0,60.3 48.89,109.19 109.2,109.19 60.29,0 109.18,-48.89 109.18,-109.19 0,-60.3 -48.89,-109.18 -109.18,-109.18 -60.31,0 -109.2,48.88 -109.2,109.18 v 0"
         style="fill:#ffffff;fill-opacity:1;fill-rule:nonzero;stroke:none"
         id="path106" />
      <path
         d="m 7028.67,1281.41 c 0,60.31 48.88,109.18 109.19,109.18 60.31,0 109.18,-48.87 109.18,-109.18 0,-60.31 -48.87,-109.19 -109.18,-109.19 -60.31,0 -109.19,48.88 -109.19,109.19 v 0"
         style="fill:#ffffff;fill-opacity:1;fill-rule:nonzero;stroke:none"
         id="path108" />
      <path
         d="m 7549.96,1281.41 c 0,60.31 48.88,109.18 109.19,109.18 60.3,0 109.18,-48.87 109.18,-109.18 0,-60.31 -48.88,-109.19 -109.18,-109.19 -60.31,0 -109.19,48.88 -109.19,109.19 v 0"
         style="fill:#ffffff;fill-opacity:1;fill-rule:nonzero;stroke:none"
         id="path110" />
      <path
         d="m 8071.21,1281.41 c 0,60.31 48.89,109.18 109.2,109.18 60.32,0 109.19,-48.87 109.19,-109.18 0,-60.31 -48.87,-109.19 -109.19,-109.19 -60.31,0 -109.2,48.88 -109.2,109.19 v 0"
         style="fill:#ffffff;fill-opacity:1;fill-rule:nonzero;stroke:none"
         id="path112" />
      <path
         d="m 6507.39,1281.41 c 0,60.31 48.89,109.18 109.2,109.18 60.29,0 109.19,-48.87 109.19,-109.18 0,-60.31 -48.9,-109.19 -109.19,-109.19 -60.31,0 -109.2,48.88 -109.2,109.19 v 0"
         style="fill:#ffffff;fill-opacity:1;fill-rule:nonzero;stroke:none"
         id="path114" />
      <path
         d="m 5986.12,1281.41 c 0,60.31 48.89,109.18 109.2,109.18 60.29,0 109.18,-48.87 109.18,-109.18 0,-60.31 -48.89,-109.19 -109.18,-109.19 -60.31,0 -109.2,48.88 -109.2,109.19 v 0"
         style="fill:#ffffff;fill-opacity:1;fill-rule:nonzero;stroke:none"
         id="path116" />
      <path
         d="m 7028.67,988.352 c 0,60.308 48.88,109.178 109.19,109.178 60.31,0 109.18,-48.87 109.18,-109.178 0,-60.301 -48.87,-109.192 -109.18,-109.192 -60.31,0 -109.19,48.891 -109.19,109.192 v 0"
         style="fill:#ffffff;fill-opacity:1;fill-rule:nonzero;stroke:none"
         id="path118" />
      <path
         d="m 7549.96,988.352 c 0,60.308 48.88,109.178 109.19,109.178 60.3,0 109.18,-48.87 109.18,-109.178 0,-60.301 -48.88,-109.192 -109.18,-109.192 -60.31,0 -109.19,48.891 -109.19,109.192 v 0"
         style="fill:#ffffff;fill-opacity:1;fill-rule:nonzero;stroke:none"
         id="path120" />
      <path
         d="m 8071.21,988.352 c 0,60.308 48.89,109.178 109.2,109.178 60.32,0 109.19,-48.87 109.19,-109.178 0,-60.301 -48.87,-109.192 -109.19,-109.192 -60.31,0 -109.2,48.891 -109.2,109.192 v 0"
         style="fill:#ffffff;fill-opacity:1;fill-rule:nonzero;stroke:none"
         id="path122" />
      <path
         d="m 5986.12,988.352 c 0,60.308 48.89,109.178 109.2,109.178 60.29,0 109.18,-48.87 109.18,-109.178 0,-60.301 -48.89,-109.192 -109.18,-109.192 -60.31,0 -109.2,48.891 -109.2,109.192 v 0"
         style="fill:#ffffff;fill-opacity:1;fill-rule:nonzero;stroke:none"
         id="path124" />
      <path
         d="m 7028.67,695.301 c 0,60.301 48.88,109.187 109.19,109.187 60.31,0 109.18,-48.886 109.18,-109.187 0,-60.313 -48.87,-109.199 -109.18,-109.199 -60.31,0 -109.19,48.886 -109.19,109.199 v 0"
         style="fill:#ffffff;fill-opacity:1;fill-rule:nonzero;stroke:none"
         id="path126" />
      <path
         d="m 7549.96,695.301 c 0,60.301 48.88,109.187 109.19,109.187 60.3,0 109.18,-48.886 109.18,-109.187 0,-60.313 -48.88,-109.199 -109.18,-109.199 -60.31,0 -109.19,48.886 -109.19,109.199 v 0"
         style="fill:#ffffff;fill-opacity:1;fill-rule:nonzero;stroke:none"
         id="path128" />
      <path
         d="m 8071.21,695.301 c 0,60.301 48.89,109.187 109.2,109.187 60.32,0 109.19,-48.886 109.19,-109.187 0,-60.313 -48.87,-109.199 -109.19,-109.199 -60.31,0 -109.2,48.886 -109.2,109.199 v 0"
         style="fill:#ffffff;fill-opacity:1;fill-rule:nonzero;stroke:none"
         id="path130" />
      <path
         d="m 6507.39,695.301 c 0,60.301 48.89,109.187 109.2,109.187 60.29,0 109.19,-48.886 109.19,-109.187 0,-60.313 -48.9,-109.199 -109.19,-109.199 -60.31,0 -109.2,48.886 -109.2,109.199 v 0"
         style="fill:#ffffff;fill-opacity:1;fill-rule:nonzero;stroke:none"
         id="path132" />
      <path
         d="m 5986.12,695.301 c 0,60.301 48.89,109.187 109.2,109.187 60.29,0 109.18,-48.886 109.18,-109.187 0,-60.313 -48.89,-109.199 -109.18,-109.199 -60.31,0 -109.2,48.886 -109.2,109.199 v 0"
         style="fill:#ffffff;fill-opacity:1;fill-rule:nonzero;stroke:none"
         id="path134" />
      <path
         d="m 6616.71,915.48 c -40.16,0 -72.66,32.571 -72.66,72.692 0,40.128 32.5,72.668 72.66,72.668 40.13,0 72.66,-32.54 72.66,-72.668 0,-40.121 -32.53,-72.692 -72.66,-72.692 z m 0,181.88 c -60.29,0 -109.18,-48.89 -109.18,-109.188 0,-60.293 48.89,-109.184 109.18,-109.184 60.29,0 109.19,48.891 109.19,109.184 0,60.298 -48.9,109.188 -109.19,109.188"
         style="fill:#ffffff;fill-opacity:1;fill-rule:nonzero;stroke:none"
         id="path136" />
      <path
         d="m 0,1721.31 h 606.117 v -98.36 H 116.801 v -279.08 h 456.121 v -98.36 H 116.801 V 941.84 H 609.805 V 843.48 H 0 v 877.83"
         style="fill:#ffffff;fill-opacity:1;fill-rule:nonzero;stroke:none"
         id="path138" />
      <path
         d="m 753.629,1721.31 h 159.832 l 276.619,-737.669 277.85,737.669 h 159.83 V 843.48 h -110.65 v 730.3 h -2.46 l -274.16,-730.3 h -99.58 l -274.172,730.3 h -2.457 V 843.48 H 753.629 v 877.83"
         style="fill:#ffffff;fill-opacity:1;fill-rule:nonzero;stroke:none"
         id="path140" />
      <path
         d="m 1938.78,941.84 h 292.61 c 102.04,0 164.75,60.24 164.75,157.37 0,114.33 -92.21,146.3 -190.57,146.3 h -266.79 z m 0,402.03 h 233.6 c 132.78,0 186.87,46.72 186.87,140.16 0,122.94 -84.83,138.92 -186.87,138.92 h -233.6 z m -116.8,377.44 h 318.43 c 76.23,0 180.73,0 232.37,-31.97 57.78,-34.42 103.27,-95.89 103.27,-183.18 0,-93.44 -47.95,-163.52 -130.32,-196.72 v -2.45 c 108.19,-23.36 167.2,-103.28 167.2,-211.47 0,-127.86 -93.43,-252.04 -266.79,-252.04 h -424.16 v 877.83"
         style="fill:#ffffff;fill-opacity:1;fill-rule:nonzero;stroke:none"
         id="path142" />
      <path
         d="m 2664.14,1721.31 h 116.8 V 941.84 h 464.73 v -98.36 h -581.53 v 877.83"
         style="fill:#ffffff;fill-opacity:1;fill-rule:nonzero;stroke:none"
         id="path144" />
      <path
         d="m 3825.94,1721.31 h 606.11 v -98.36 h -489.31 v -279.08 h 456.12 v -98.36 H 3942.74 V 941.84 h 493 v -98.36 h -609.8 v 877.83"
         style="fill:#ffffff;fill-opacity:1;fill-rule:nonzero;stroke:none"
         id="path146" />
      <path
         d="m 4693.9,941.84 h 292.61 c 102.04,0 164.75,60.24 164.75,157.37 0,114.33 -92.21,146.3 -190.57,146.3 H 4693.9 Z m 0,402.03 h 233.6 c 132.78,0 186.87,46.72 186.87,140.16 0,122.94 -84.83,138.92 -186.87,138.92 h -233.6 z m -116.79,377.44 h 318.42 c 76.23,0 180.73,0 232.36,-31.97 57.79,-34.42 103.28,-95.89 103.28,-183.18 0,-93.44 -47.95,-163.52 -130.32,-196.72 v -2.45 c 108.19,-23.36 167.2,-103.28 167.2,-211.47 0,-127.86 -93.44,-252.04 -266.79,-252.04 h -424.15 v 877.83"
         style="fill:#ffffff;fill-opacity:1;fill-rule:nonzero;stroke:none"
         id="path148" />
      <path
         d="m 5424.18,1721.31 h 116.8 V 843.48 h -116.8 v 877.83"
         style="fill:#ffffff;fill-opacity:1;fill-rule:nonzero;stroke:none"
         id="path150" />
      <path
         d="m 3310.84,1343.86 h 355.31 v -98.35 h -355.31 v 98.35"
         style="fill:#ffffff;fill-opacity:1;fill-rule:nonzero;stroke:none"
         id="path152" />
    </g>
  </g>
</svg>
