<?xml version="1.0" encoding="UTF-8" standalone="no"?>
<!-- Created with Inkscape (http://www.inkscape.org/) -->

<svg
   width="1920"
   height="1080"
   viewBox="0 0 507.99999 285.75"
   version="1.1"
   id="svg1"
   inkscape:version="1.4 (e7c3feb1, 2024-10-09)"
   sodipodi:docname="background.svg"
   xmlns:inkscape="http://www.inkscape.org/namespaces/inkscape"
   xmlns:sodipodi="http://sodipodi.sourceforge.net/DTD/sodipodi-0.dtd"
   xmlns="http://www.w3.org/2000/svg"
   xmlns:svg="http://www.w3.org/2000/svg">
  <sodipodi:namedview
     id="namedview1"
     pagecolor="#ffffff"
     bordercolor="#000000"
     borderopacity="0.25"
     inkscape:showpageshadow="2"
     inkscape:pageopacity="0.0"
     inkscape:pagecheckerboard="0"
     inkscape:deskcolor="#d1d1d1"
     inkscape:document-units="mm"
     inkscape:zoom="0.78216891"
     inkscape:cx="960.78991"
     inkscape:cy="774.76871"
     inkscape:window-width="1488"
     inkscape:window-height="1027"
     inkscape:window-x="2061"
     inkscape:window-y="51"
     inkscape:window-maximized="0"
     inkscape:current-layer="g2-4-8"
     showguides="true">
    <sodipodi:guide
       position="67.992026,283.72039"
       orientation="0,-1"
       id="guide2"
       inkscape:locked="false" />
  </sodipodi:namedview>
  <defs
     id="defs1" />
  <g
     inkscape:label="Layer 1"
     inkscape:groupmode="layer"
     id="layer1">
    <g
       id="g2-4-8"
       transform="matrix(1.4543045,0,0,1.4117647,170.23987,29.450951)">
      <path
         d="m 48.3465,134.554 c -0.0667,-0.18447 -0.571036,-2.71317 -1.12075,-5.61935 l -0.99947,-5.28393 -5.70679,-2.43013 c -3.13872,-1.33657 -5.84424,-2.43013 -6.01223,-2.43013 -0.167994,0 -2.31423,1.38853 -4.76943,3.08562 -2.45519,1.6971 -4.54255,3.08562 -4.63856,3.08562 -0.243795,0 -12.896,-12.9709 -12.896,-13.2208 0,-0.1119 1.35781,-2.24199 3.01736,-4.73352 1.65955,-2.49154 3.01736,-4.66169 3.01736,-4.82255 0,-0.16086 -1.07458,-2.93513 -2.38796,-6.16502 L 13.46207,90.14726 8.30664,89.13699 C 5.47116,88.581342 3.00363,88.07047 2.82324,88.00172 2.578118,87.908296 2.495266,86.69781 2.495266,83.20991 L 2.49533,78.5436 H 14.3997 26.304 l 0.182684,2.21361 c 0.521734,6.32189 2.75468,12.3653 6.32004,17.1051 1.48005,1.96758 2.18,2.6077 2.31375,2.11597 0.05564,-0.204554 0.359521,-1.33785 0.675293,-2.51844 1.91082,-7.14406 7.13422,-13.2571 14.7879,-17.3064 1.25519,-0.66408 2.27691,-1.26779 2.2705,-1.34158 -0.0064,-0.07378 -0.815447,-0.525959 -1.79785,-1.00483 -6.09983,-2.97333 -10.9928,-7.74953 -13.6765,-13.3501 -1.75348,-3.65926 -2.42236,-6.62283 -2.42236,-10.7326 0,-5.03647 1.24956,-9.33369 3.91612,-13.4674 2.50122,-3.87744 7.52797,-8.22697 12.2274,-10.5801 0.974081,-0.487751 1.77052,-0.951462 1.76986,-1.03047 -7.94e-4,-0.079 -1.1311,-0.731572 -2.51208,-1.45015 -6.03821,-3.1419 -10.699,-7.85386 -13.2136,-13.3587 -1.21591,-2.66178 -1.79648,-4.83692 -2.14632,-8.04123 -0.339725,-3.11168 0.0432,-3.97819 1.76185,-3.9869 1.03651,-0.00524 1.67998,0.719581 1.68252,1.89523 0.0021,0.946109 0.435123,4.04264 0.682158,4.87746 0.131569,0.444608 1.17755,0.46746 18.4222,0.402473 l 18.2827,-0.068897 0.302672,-1.47574 c 0.16647,-0.811656 0.31406,-2.17 0.327974,-3.01855 0.03066,-1.87004 0.597338,-2.61608 1.9871,-2.61608 1.4468,0 1.82685,0.837088 1.62134,3.57113 -0.596381,7.93421 -4.86039,14.9184 -12.1104,19.8361 -1.29877,0.880958 -3.1819,2.02546 -4.1847,2.54335 l -1.82329,0.941609 2.3109,1.1869 c 10.5699,5.42882 16.4544,14.8414 15.814,25.2954 -0.57356,9.36264 -6.05218,17.267 -15.4523,22.2941 l -2.62531,1.40398 2.69441,1.44267 c 7.89402,4.22669 13.0767,10.5789 14.8275,18.1735 l 0.474879,2.059905 0.895272,-0.876159 c 1.31728,-1.28916 4.35615,-6.10221 5.26967,-8.34627 1.27702,-3.13695 2.10863,-6.44855 2.44292,-9.72811 L 88.914771,78.543771 100.805,78.5436 h 11.889 v 4.6668 c 0,3.48919 -0.0828,4.69778 -0.32797,4.78946 -0.18039,0.06745 -2.65012,0.583752 -5.4883,1.14734 l -5.16035,1.0247 -2.383054,5.86049 c -1.31068,3.22328 -2.38306,5.99209 -2.38306,6.15296 0,0.16086 1.35781,2.33101 3.01736,4.82255 1.659554,2.49154 3.017364,4.62346 3.017364,4.7376 0,0.11414 -2.88679,3.15777 -6.415084,6.76364 l -6.41508,6.55613 -4.60361,-3.13716 c -2.53199,-1.72543 -4.72095,-3.13716 -4.86438,-3.13716 -0.14342,0 -2.84085,1.09716 -5.99431,2.43813 l -5.73354,2.43814 -0.997954,5.27594 c -0.548872,2.90176 -1.05252,5.42686 -1.11922,5.61133 -0.09383,0.25951 -2.18629,0.3354 -9.24839,0.3354 -7.06209,0 -9.15455,-0.0759 -9.24839,-0.3354 z m 15.3708,-24.7497 c 4.0418,-0.8572 7.86648,-2.49877 11.3914,-4.88923 1.55919,-1.0574 1.63139,-1.35942 1.08787,-4.55117 l -0.289618,-1.70076 -18.4049,0.06888 -18.4049,0.06888 -0.299653,1.74405 c -0.559069,3.25392 -0.647178,3.04715 2.06169,4.83859 3.68146,2.43464 8.36641,4.21171 12.6688,4.80546 2.48912,0.3435 7.67963,0.14752 10.1893,-0.38474 z m 10.6698,-15.041 c 0,-0.26725 -1.88269,-3.18645 -2.80368,-4.34723 L 70.678655,89.27573 57.5837,89.2762 h -13.095 l -0.848385,0.953412 c -1.07582,1.209 -2.83572,3.90506 -2.83681,4.34583 -7.94e-4,0.264832 3.53208,0.335396 16.7914,0.335396 9.23575,0 16.7922,-0.06617 16.7922,-0.147047 z M 65.9337,85.45223 C 65.87814,85.267763 63.97875,84.16377 61.71283,82.99892 L 57.59298,80.881 55.16691,82.018 c -2.96272,1.3885 -6.23056,3.24998 -6.23056,3.54917 0,0.121258 3.84714,0.220466 8.54918,0.220466 6.71829,0 8.52754,-0.07183 8.44816,-0.335396 z M 60.8288,75.2363 c 1.61258,-0.786002 3.52231,-1.81001 4.24386,-2.27559 l 1.31189,-0.846496 -8.78969,7.94e-4 c -8.77627,7.93e-4 -8.78868,0.0016 -8.13373,0.526406 0.928985,0.744293 7.38078,3.99732 7.95675,4.01182 0.263432,0.0066 1.79835,-0.63102 3.41092,-1.41702 z m 11.2371,-8.60167 c 1.0693,-1.3574 3.10837,-4.87981 3.10837,-5.36955 0,-0.0891 -7.97572,-0.162002 -17.7239,-0.162002 l -17.72387,2.2e-5 1.06025,2.07945 c 0.583138,1.14369 1.59529,2.77481 2.24923,3.62471 l 1.18897,1.54527 13.2986,-0.06954 13.2986,-0.06953 z m 4.25629,-10.1265 c 0.09019,-0.461168 0.163986,-1.71387 0.163986,-2.78378 0,-1.06991 -0.0738,-2.32261 -0.163986,-2.78378 L 76.158201,50.102085 57.4614,50.1021 H 38.7647 l -0.185608,1.77236 c -0.102079,0.974806 -0.103851,2.60482 -0.0039,3.62227 l 0.181665,1.8499 18.700659,-3e-5 h 18.7007 z m -1.54386,-11.1488 c -0.576368,-1.41065 -1.86835,-3.50527 -3.074,-4.98371 l -1.03935,-1.2745 -13.18708,8e-5 h -13.187 l -1.19538,1.55596 c -1.23749,1.61076 -3.08009,4.82652 -3.08009,5.37545 0,0.235492 4.35885,0.313113 17.5829,0.313113 L 75.1813,46.3457 Z M 65.49192,34.83723 C 64.804644,34.29688 58.87084,31.23594 57.93331,30.93818 57.31095,30.740497 52.63093,32.866 50.1171,34.48804 l -1.31189,0.846494 8.65851,-7.94e-4 c 8.47195,-7.93e-4 8.64493,-0.01154 8.02819,-0.496424 z m -4.97249,-9.64984 c 1.49415,-0.716605 3.42505,-1.7426 4.2909,-2.27999 l 1.57427,-0.977076 -8.78969,0.0078 c -7.95683,0.0071 -8.73997,0.04688 -8.26494,0.419798 0.761343,0.597682 7.70945,4.13234 8.12296,4.13234 0.192418,0 1.57233,-0.586313 3.06646,-1.30292 z M 72.0143,16.5095 c 0.655668,-0.840818 1.46131,-2.01805 1.79031,-2.61608 L 74.402798,12.8061 H 57.6027 c -9.24006,0 -16.8001,0.0971 -16.8001,0.215785 0,0.328366 1.52884,2.72285 2.56073,4.01063 l 0.917315,1.14479 13.2707,-0.06952 13.2707,-0.06952 z M 8.53006,57.8831 c 0,-10.6624 -0.093334,-16.9039 -0.252779,-16.9039 -0.139029,0 -1.01996,-0.733895 -1.95762,-1.63088 C 1.91144,35.1313 1.27488,28.7792 4.7443,23.6278 5.72596,22.1702 7.87995,20.2901 9.12106,19.8076 l 0.720893,-0.280286 0.00185,4.75596 0.00185,4.75596 2.21959,1.28696 2.21959,1.28696 2.10794,-1.24337 2.10793,-1.24336 -7e-6,-4.806224 c 0,-2.64341 0.08855,-4.80507 0.196786,-4.80369 0.588726,0.0075 2.98796,1.72497 4.08392,2.9234 2.44791,2.67673 3.63013,6.53234 3.06101,9.98288 -0.529428,3.20984 -2.56802,6.57814 -4.85671,8.02464 L 20.074974,41.023033 20.075,57.905 V 74.787 H 14.3026 8.53027 Z m 86.3226,0.04987 -6e-5,-16.854066 -1.16883,-0.895584 c -1.56567,-1.19965 -2.63008,-2.60143 -3.62307,-4.77138 -0.672469,-1.46955 -0.844618,-2.22882 -0.932748,-4.11387 -0.162256,-3.47046 0.758554,-6.23067 2.92123,-8.75669 0.79069,-0.923535 3.67887,-3.02746 4.15596,-3.02746 0.121933,0 0.221699,2.14933 0.221699,4.77631 l 5.9e-5,4.776374 2.02734,1.19373 c 1.11504,0.656549 2.09798,1.22693 2.18431,1.26752 0.0863,0.04058 1.12219,-0.485446 2.30191,-1.16895 l 2.14494,-1.24274 -4e-4,-4.80116 c 0,-2.64059 0.0637,-4.80107 0.14164,-4.80107 0.43154,0 2.24965,1.16342 3.30491,2.11482 5.37741,4.84819 5.1386,13.9495 -0.48251,18.3887 l -1.38776,1.09595 -0.001,16.8368 -0.001,16.8368 H 100.756 94.8525 Z"
         style="fill:#44475a;fill-opacity:1;stroke-width:1.00282"
         id="path1-58-7"
         sodipodi:nodetypes="cscsssssssscssccccssssssssssscsssscsscsssssscssscsscssscccssscssssscssscsssccssscccssssssscccscssssscssssscscscsccssscsscccsssscccsccccscscccssscccsscscccsccsscccscssscccccsssscccccccsscssccccccccsssssccsssccssscccccc" />
      <text
         xml:space="preserve"
         style="font-style:normal;font-variant:normal;font-weight:normal;font-stretch:normal;font-size:6.15506px;font-family:sans-serif;-inkscape-font-specification:'sans-serif, Normal';font-variant-ligatures:normal;font-variant-caps:normal;font-variant-numeric:normal;font-variant-east-asian:normal;text-align:start;writing-mode:lr-tb;direction:ltr;text-anchor:start;fill:#44475a;fill-opacity:1;stroke-width:0.184652"
         x="13.030789"
         y="147.29681"
         id="text3"
         transform="scale(0.98526594,1.0149544)"><tspan
           sodipodi:role="line"
           id="tspan3"
           style="font-style:normal;font-variant:normal;font-weight:normal;font-stretch:normal;font-size:6.15506px;font-family:sans-serif;-inkscape-font-specification:'sans-serif, Normal';font-variant-ligatures:normal;font-variant-caps:normal;font-variant-numeric:normal;font-variant-east-asian:normal;stroke-width:0.184652"
           x="13.030789"
           y="147.29681">Genebuild Metadata Handling</tspan></text>
    </g>
  </g>
</svg>
